<?xml version="1.0" encoding="UTF-8" standalone="no"?>
<svg
   xmlns:dc="http://purl.org/dc/elements/1.1/"
   xmlns:cc="http://creativecommons.org/ns#"
   xmlns:rdf="http://www.w3.org/1999/02/22-rdf-syntax-ns#"
   xmlns:svg="http://www.w3.org/2000/svg"
   xmlns="http://www.w3.org/2000/svg"
   xmlns:sodipodi="http://sodipodi.sourceforge.net/DTD/sodipodi-0.dtd"
   xmlns:inkscape="http://www.inkscape.org/namespaces/inkscape"
   version="1.1"
   x="0px"
   y="0px"
   viewBox="0 0 100 125"
   xml:space="preserve"
   id="svg38"
   sodipodi:docname="offline_white.svg"
   style="enable-background:new 0 0 100 100;"
   inkscape:version="0.92.1 r15371"><metadata
     id="metadata44"><rdf:RDF><cc:Work
         rdf:about=""><dc:format>image/svg+xml</dc:format><dc:type
           rdf:resource="http://purl.org/dc/dcmitype/StillImage" /><dc:title></dc:title></cc:Work></rdf:RDF></metadata><defs
     id="defs42" /><sodipodi:namedview
     pagecolor="#ffffff"
     bordercolor="#666666"
     borderopacity="1"
     objecttolerance="10"
     gridtolerance="10"
     guidetolerance="10"
     inkscape:pageopacity="0"
     inkscape:pageshadow="2"
     inkscape:window-width="1680"
     inkscape:window-height="987"
     id="namedview40"
     showgrid="false"
     inkscape:zoom="1.888"
     inkscape:cx="37.545469"
     inkscape:cy="-10.563849"
     inkscape:window-x="-8"
     inkscape:window-y="0"
     inkscape:window-maximized="1"
     inkscape:current-layer="svg38" /><g
     id="g10"><path
       d="m 5273.1,2400.1 v -2 c 0,-2.8 -5,-4 -9.7,-4 -4.7,0 -9.7,1.3 -9.7,4 v 2 c 0,1.8 0.7,3.6 2,4.9 l 5,4.9 c 0.3,0.3 0.4,0.6 0.4,1 v 6.4 c 0,0.4 0.2,0.7 0.6,0.8 l 2.9,0.9 c 0.5,0.1 1,-0.2 1,-0.8 v -7.2 c 0,-0.4 0.2,-0.7 0.4,-1 l 5.1,-5 c 1.3,-1.3 2,-3.1 2,-4.9 z m -9.7,-0.1 c -4.8,0 -7.4,-1.3 -7.5,-1.8 v 0 c 0.1,-0.5 2.7,-1.8 7.5,-1.8 4.8,0 7.3,1.3 7.5,1.8 -0.2,0.5 -2.7,1.8 -7.5,1.8 z"
       id="path2"
       inkscape:connector-curvature="0" /><path
       d="m 5268.4,2410.3 c -0.6,0 -1,0.4 -1,1 0,0.6 0.4,1 1,1 h 4.3 c 0.6,0 1,-0.4 1,-1 0,-0.6 -0.4,-1 -1,-1 z"
       id="path4"
       inkscape:connector-curvature="0" /><path
       d="m 5272.7,2413.7 h -4.3 c -0.6,0 -1,0.4 -1,1 0,0.6 0.4,1 1,1 h 4.3 c 0.6,0 1,-0.4 1,-1 0,-0.6 -0.4,-1 -1,-1 z"
       id="path6"
       inkscape:connector-curvature="0" /><path
       d="m 5272.7,2417 h -4.3 c -0.6,0 -1,0.4 -1,1 0,0.6 0.4,1 1,1 h 4.3 c 0.6,0 1,-0.4 1,-1 0,-0.5 -0.4,-1 -1,-1 z"
       id="path8"
       inkscape:connector-curvature="0" /></g><g
     id="g28"
     transform="translate(0,28)"
     style="fill:#ffffff"><path
       d="m 35.4,22.2 c -0.3,-2.7 0.1,-5.4 1.2,-7.8 -12,2.5 -23.5,8.4 -32.8,17.7 -1.8,1.8 -1.8,4.5 0,6.2 0.8,0.9 1.9,1.3 3.1,1.3 1.2,0 2.3,-0.4 3.1,-1.3 C 17.3,31 26.2,26.1 35.6,23.7 Z"
       id="path12"
       inkscape:connector-curvature="0"
       style="fill:#ffffff" /><path
       d="M 96.2,32.2 C 86.9,22.9 75.4,17 63.4,14.5 c 1.1,2.4 1.5,5.1 1.2,7.8 l -0.2,1.5 c 9.4,2.5 18.3,7.4 25.6,14.6 1.7,1.7 4.5,1.7 6.2,0 1.7,-1.8 1.7,-4.5 0,-6.2 z"
       id="path14"
       inkscape:connector-curvature="0"
       style="fill:#ffffff" /><path
       d="m 36.9,34.3 c -7.2,2.1 -13.8,6 -19.4,11.6 -1.8,1.8 -1.8,4.5 0,6.2 0.8,0.9 1.9,1.3 3.1,1.3 1.1,0 2.3,-0.4 3.1,-1.3 4.2,-4.1 9.1,-7.2 14.4,-8.9 z"
       id="path16"
       inkscape:connector-curvature="0"
       style="fill:#ffffff" /><path
       d="M 63.1,34.3 62,43.2 c 5.3,1.8 10.2,4.7 14.3,8.9 1.8,1.7 4.5,1.7 6.2,0 1.8,-1.8 1.8,-4.5 0,-6.2 C 76.9,40.3 70.3,36.4 63.1,34.3 Z"
       id="path18"
       inkscape:connector-curvature="0"
       style="fill:#ffffff" /><path
       d="m 31.2,59.6 c -1.7,1.7 -1.7,4.5 0,6.2 0.9,0.9 2,1.3 3.1,1.3 1.1,0 2.3,-0.4 3.1,-1.3 1,-1 2.1,-1.8 3.2,-2.5 L 39.4,54 c -3.1,1.3 -5.8,3.2 -8.2,5.6 z"
       id="path20"
       inkscape:connector-curvature="0"
       style="fill:#ffffff" /><path
       d="m 60.6,54 -1.2,9.3 c 1.1,0.7 2.2,1.6 3.1,2.5 1.8,1.7 4.5,1.7 6.2,0 1.8,-1.8 1.8,-4.5 0,-6.2 -2.3,-2.4 -5,-4.3 -8.1,-5.6 z"
       id="path22"
       inkscape:connector-curvature="0"
       style="fill:#ffffff" /><path
       d="m 47.1,65.2 c 0.9,-0.3 1.9,-0.3 2.8,-0.3 1,0 2,0.1 3,0.3 l 5.4,-43.8 c 0.1,-0.4 0.1,-0.7 0.1,-1.1 0,-4.5 -3.7,-8.4 -8.4,-8.4 -5,0 -8.9,4.5 -8.4,9.4 z"
       id="path24"
       inkscape:connector-curvature="0"
       style="fill:#ffffff" /><path
       d="m 50,71.1 c -4.6,0 -8.4,3.8 -8.4,8.4 0,4.7 3.8,8.5 8.4,8.5 4.7,0 8.5,-3.8 8.5,-8.5 0,-4.6 -3.8,-8.4 -8.5,-8.4 z"
       id="path26"
       inkscape:connector-curvature="0"
       style="fill:#ffffff" /></g></svg>